####
#
# OBJ File Generated by Meshlab
#
####
# Object cone.obj
#
# Vertices: 41
# Faces: 78
#
####
vn 2.706625 -1.614327 -0.428682
v 0.987689 -1.000000 -0.156434
vn 2.606242 -1.614330 -0.846818
v 0.951057 -1.000000 -0.309017
vn 2.441683 -1.614329 -1.244097
v 0.891007 -1.000000 -0.453991
vn 2.216999 -1.614329 -1.610747
v 0.809018 -1.000000 -0.587785
vn 1.937731 -1.614333 -1.937732
v 0.707107 -1.000000 -0.707107
vn 1.610749 -1.614330 -2.216999
v 0.587786 -1.000000 -0.809017
vn 1.244099 -1.614328 -2.441681
v 0.453991 -1.000000 -0.891007
vn 0.846821 -1.614332 -2.606242
v 0.309017 -1.000000 -0.951057
vn 0.428692 -1.614329 -2.706625
v 0.156435 -1.000000 -0.987689
vn -0.000001 -1.614327 -2.740362
v 0.000000 -1.000000 -1.000001
vn -0.428691 -1.614331 -2.706626
v -0.156434 -1.000000 -0.987689
vn -0.846819 -1.614331 -2.606242
v -0.309017 -1.000000 -0.951057
vn -1.244097 -1.614329 -2.441683
v -0.453991 -1.000000 -0.891007
vn -1.610747 -1.614328 -2.216999
v -0.587785 -1.000000 -0.809018
vn -1.937732 -1.614333 -1.937731
v -0.707107 -1.000000 -0.707107
vn -2.216999 -1.614331 -1.610749
v -0.809017 -1.000000 -0.587786
vn -2.441681 -1.614328 -1.244099
v -0.891007 -1.000000 -0.453991
vn -2.606242 -1.614333 -0.846821
v -0.951057 -1.000000 -0.309017
vn -2.706623 -1.614325 -0.428683
v -0.987689 -1.000000 -0.156435
vn -2.740369 -1.614337 0.000001
v -1.000000 -1.000000 -0.000000
vn -2.706625 -1.614326 0.428682
v -0.987689 -1.000000 0.156434
vn -2.606242 -1.614331 0.846818
v -0.951057 -1.000000 0.309017
vn -2.441678 -1.614325 1.244103
v -0.891007 -1.000000 0.453991
vn -2.217003 -1.614337 1.610750
v -0.809017 -1.000000 0.587785
vn -1.937728 -1.614326 1.937728
v -0.707107 -1.000000 0.707107
vn -1.610750 -1.614337 2.217003
v -0.587785 -1.000000 0.809017
vn -1.244103 -1.614326 2.441678
v -0.453991 -1.000000 0.891007
vn -0.846812 -1.614328 2.606242
v -0.309017 -1.000000 0.951057
vn -0.428685 -1.614336 2.706630
v -0.156435 -1.000000 0.987688
vn 0.000001 -1.614328 2.740363
v -0.000000 -1.000000 1.000000
vn 0.428683 -1.614337 2.706631
v 0.156434 -1.000000 0.987688
vn 0.846812 -1.614325 2.606240
v 0.309017 -1.000000 0.951057
vn 1.244103 -1.614330 2.441680
v 0.453990 -1.000000 0.891007
vn 1.610746 -1.614334 2.217004
v 0.587785 -1.000000 0.809017
vn 1.937728 -1.614326 1.937728
v 0.707107 -1.000000 0.707107
vn 2.217003 -1.614337 1.610750
v 0.809017 -1.000000 0.587785
vn 2.441678 -1.614325 1.244103
v 0.891007 -1.000000 0.453991
vn 2.606242 -1.614326 0.846810
v 0.951057 -1.000000 0.309017
vn 2.706631 -1.614338 0.428683
v 0.987688 -1.000000 0.156434
vn 2.740366 -1.614332 0.000009
v 1.000000 -1.000000 0.000000
vn 0.000001 1.252514 -0.000001
v 0.000000 1.000000 0.000000
# 41 vertices, 0 vertices normals

f 1//1 40//40 2//2
f 40//40 39//39 2//2
f 39//39 38//38 2//2
f 38//38 37//37 2//2
f 37//37 36//36 2//2
f 36//36 35//35 2//2
f 35//35 34//34 2//2
f 34//34 33//33 2//2
f 33//33 32//32 2//2
f 32//32 31//31 2//2
f 31//31 30//30 2//2
f 30//30 29//29 2//2
f 29//29 28//28 2//2
f 28//28 27//27 2//2
f 27//27 26//26 2//2
f 26//26 25//25 2//2
f 25//25 24//24 2//2
f 24//24 23//23 2//2
f 23//23 22//22 2//2
f 22//22 21//21 2//2
f 21//21 20//20 2//2
f 20//20 19//19 2//2
f 19//19 18//18 2//2
f 18//18 17//17 2//2
f 17//17 16//16 2//2
f 16//16 15//15 2//2
f 15//15 14//14 2//2
f 14//14 13//13 2//2
f 13//13 12//12 2//2
f 12//12 11//11 2//2
f 11//11 10//10 2//2
f 10//10 9//9 2//2
f 9//9 8//8 2//2
f 8//8 7//7 2//2
f 7//7 6//6 2//2
f 6//6 5//5 2//2
f 5//5 4//4 2//2
f 4//4 3//3 2//2
f 1//1 2//2 41//41
f 2//2 3//3 41//41
f 3//3 4//4 41//41
f 4//4 5//5 41//41
f 5//5 6//6 41//41
f 6//6 7//7 41//41
f 7//7 8//8 41//41
f 8//8 9//9 41//41
f 9//9 10//10 41//41
f 10//10 11//11 41//41
f 11//11 12//12 41//41
f 12//12 13//13 41//41
f 13//13 14//14 41//41
f 14//14 15//15 41//41
f 15//15 16//16 41//41
f 16//16 17//17 41//41
f 17//17 18//18 41//41
f 18//18 19//19 41//41
f 19//19 20//20 41//41
f 20//20 21//21 41//41
f 21//21 22//22 41//41
f 22//22 23//23 41//41
f 23//23 24//24 41//41
f 24//24 25//25 41//41
f 25//25 26//26 41//41
f 26//26 27//27 41//41
f 27//27 28//28 41//41
f 28//28 29//29 41//41
f 29//29 30//30 41//41
f 30//30 31//31 41//41
f 31//31 32//32 41//41
f 32//32 33//33 41//41
f 33//33 34//34 41//41
f 34//34 35//35 41//41
f 35//35 36//36 41//41
f 36//36 37//37 41//41
f 37//37 38//38 41//41
f 38//38 39//39 41//41
f 39//39 40//40 41//41
f 40//40 1//1 41//41
# 78 faces, 0 coords texture

# End of File
